<?xml version="1.0" encoding="utf-8"?>
<!-- Generator: Adobe Illustrator 25.0.0, SVG Export Plug-In . SVG Version: 6.00 Build 0)  -->
<svg version="1.1" id="Слой_1" xmlns="http://www.w3.org/2000/svg" xmlns:xlink="http://www.w3.org/1999/xlink" x="0px" y="0px"
	 viewBox="0 0 512 512" style="enable-background:new 0 0 512 512;" xml:space="preserve">
<style type="text/css">
	.st0{fill:#FFFFFF;}
</style>
<path class="st0" d="M31.1,128H416c17.7,0,32-14.3,32-32s-14.3-32-32-32H31.1C14.3,64,0,78.3,0,95.1S14.3,128,31.1,128z M480,224
	H95.1C78.3,224,64,238.3,64,256s14.3,32,31.1,32h384c18.6,0,32.9-14.3,32.9-32S497.7,224,480,224z M416,384H31.1
	C14.3,384,0,398.3,0,415.1S14.3,448,31.1,448H416c17.7,0,32-14.3,32-32S433.7,384,416,384z"/>
</svg>
