<?xml version="1.0" encoding="utf-8"?>
<!-- Generator: Adobe Illustrator 25.0.0, SVG Export Plug-In . SVG Version: 6.00 Build 0)  -->
<svg version="1.1" id="Слой_1" xmlns="http://www.w3.org/2000/svg" xmlns:xlink="http://www.w3.org/1999/xlink" x="0px" y="0px"
	 viewBox="0 0 39 38" style="enable-background:new 0 0 39 38;" xml:space="preserve">
<style type="text/css">
	.st0{fill:none;stroke:#FFFFFF;}
	.st1{clip-path:url(#SVGID_2_);}
	.st2{fill:#FFFFFF;}
</style>
<circle class="st0" cx="19.3" cy="18.8" r="18.3"/>
<g>
	<defs>
		<rect id="SVGID_1_" x="9.9" y="9.4" width="18.8" height="18.8"/>
	</defs>
	<clipPath id="SVGID_2_">
		<use xlink:href="#SVGID_1_"  style="overflow:visible;"/>
	</clipPath>
	<g class="st1">
		<path class="st2" d="M28.4,14c0.1-0.4,0-0.8-0.6-0.8h-2.1c-0.5,0-0.8,0.3-0.9,0.6c0,0-1,2.6-2.5,4.2c-0.5,0.5-0.7,0.6-1,0.6
			c-0.1,0-0.3-0.2-0.3-0.6V14c0-0.5-0.2-0.8-0.6-0.8h-3.2c-0.3,0-0.5,0.2-0.5,0.5c0,0.5,0.7,0.6,0.8,2v3c0,0.7-0.1,0.8-0.4,0.8
			c-0.7,0-2.4-2.6-3.4-5.5c-0.2-0.6-0.4-0.8-0.9-0.8h-2.1c-0.6,0-0.7,0.3-0.7,0.6c0,0.5,0.7,3.3,3.3,6.8c1.7,2.4,4.1,3.8,6.3,3.8
			c1.3,0,1.5-0.3,1.5-0.8v-1.9c0-0.6,0.1-0.7,0.5-0.7c0.3,0,0.8,0.2,2.1,1.3c1.4,1.4,1.6,2,2.4,2H28c0.6,0,0.9-0.3,0.7-0.9
			c-0.2-0.6-0.9-1.4-1.7-2.4c-0.5-0.6-1.2-1.2-1.4-1.5c-0.3-0.4-0.2-0.6,0-0.9C25.6,18.7,28.1,15.2,28.4,14L28.4,14z"/>
	</g>
</g>
</svg>
